<svg xmlns="http://www.w3.org/2000/svg" version="1.1" xmlns:xlink="http://www.w3.org/1999/xlink" xmlns:svgjs="http://svgjs.dev/svgjs" width="128" height="128" viewBox="0 0 128 128"><g transform="matrix(0.8046875,0,0,0.8046875,12.28033327326905,6.962832153320306)"><svg viewBox="0 0 87 96" data-background-color="#ffffff" preserveAspectRatio="xMidYMid meet" height="141" width="128" xmlns="http://www.w3.org/2000/svg" xmlns:xlink="http://www.w3.org/1999/xlink"><g id="tight-bounds" transform="matrix(1,0,0,1,0.18554374005429963,0.25950000000000273)"><svg viewBox="0 0 86.6289125198914 95.481" height="95.481" width="86.6289125198914"><g><svg viewBox="0 0 86.6289125198914 95.481" height="95.481" width="86.6289125198914"><g><svg viewBox="0 0 86.6289125198914 95.481" height="95.481" width="86.6289125198914"><g id="textblocktransform"><svg viewBox="0 0 86.6289125198914 95.481" height="95.481" width="86.6289125198914" id="textblock"><g><svg viewBox="0 0 86.6289125198914 95.481" height="95.481" width="86.6289125198914"><g><svg viewBox="0 0 86.6289125198914 95.481" height="95.481" width="86.6289125198914"><g><svg xmlns="http://www.w3.org/2000/svg" xmlns:xlink="http://www.w3.org/1999/xlink" version="1.1" x="0" y="0" viewBox="5.359 0.9212806434190279 89.04204807009214 98.14071935658097" enable-background="new 0 0 100 100" xml:space="preserve" height="95.481" width="86.6289125198914" class="icon-icon-0" data-fill-palette-color="accent" id="icon-0"><g fill="#4edee1" data-fill-palette-color="accent"><path d="M94.078 41.762C95.865 28.231 90.376 12.018 74.164 4.742 61.345-1.011 38.719-1.001 26.785 9.878 16.377 19.368 14.031 32.837 14.031 32.837S12.957 37.841 12.957 39.502C12.957 41.09 14.745 41.715 14.54 42.531 14.336 43.347 12.333 45.682 10.802 48.234 9.272 50.785 5.359 56.456 5.359 57.986S6.275 60.083 8.112 60.695C9.948 61.307 11.377 61.817 11.683 62.531S10.808 65.285 10.745 66.74C10.691 67.981 11.145 68.119 12.075 68.48 13.228 68.929 14.998 68.987 14.998 68.987S11.055 69.732 11.447 71.346C11.853 73.021 14.228 73.361 14.439 74.673 14.544 75.335 12.431 78.726 12.709 82.027 13.072 86.335 17.153 88.263 23.623 87.225 29.79 86.235 32.69 85.315 33.483 88.716 33.982 90.857 33.929 94.469 34.847 98.552 34.885 98.715 34.924 98.89 34.961 99.062H82.288C80.264 95.373 77.603 89.452 77.603 81.918 77.603 76.749 78.117 69.076 81.824 64.995 86.471 59.879 92.643 52.634 94.078 41.762M74.537 52.486S73.918 59.255 68.949 60.125C64.694 60.869 61.869 56.771 61.869 56.771L60.471 63.384H57.492S54.791 53.418 52.928 51.74C51.064 50.063 48.176 49.598 48.176 49.598S44.264 49.318 41.748 46.804C39.233 44.288 41.562 41.214 41.562 41.214S38.395 41.401 31.967 40.004C25.54 38.606 27.496 34.507 27.496 34.507S25.819 34.787 24.422 33.017C23.429 31.759 22.705 28.682 24.515 25.099 26.137 21.89 28.984 20.776 28.984 20.776S27.93 19.438 30.153 17.569C31.314 16.593 33.364 16.622 33.364 16.622S33.865 14.471 36.951 13.076C40.447 11.497 42.773 12.803 42.773 12.803S43.707 10.757 46.408 9.825C49.11 8.894 51.808 10.474 51.808 10.474S53.636 8.821 56.99 8.821 61.591 10.568 61.591 10.568 63.611 9.53 66.062 10.381C68.378 11.186 69.048 13.431 69.048 13.431S70.721 12.244 73.048 13.176C75.377 14.108 76.31 16.623 76.31 16.623S77.915 16.388 79.512 17.806C80.697 18.86 80.314 20.815 80.314 20.815S82.29 21.471 83.472 23.836C84.573 26.037 83.016 27.895 83.016 27.895S86.276 30.317 86.742 36.651C87.31 44.379 82.365 45.873 82.365 45.873S83.343 48.325 81.619 50.996C79.273 54.631 74.537 52.486 74.537 52.486" fill="#4edee1" data-fill-palette-color="accent"></path></g></svg></g></svg></g></svg></g></svg></g></svg></g></svg></g><defs></defs></svg><rect width="86.6289125198914" height="95.481" fill="none" stroke="none" visibility="hidden"></rect></g></svg></g></svg>